<svg xmlns="http://www.w3.org/2000/svg" width="24" height="24" fill="#000000" viewBox="0 0 24 24">
  <path d="M12 .5C5.73.5.5 5.74.5 12.02c0 5.11 3.3 9.44 7.9 10.97.58.11.79-.25.79-.56 0-.28-.01-1.02-.01-2-3.21.7-3.89-1.54-3.89-1.54-.52-1.32-1.27-1.68-1.27-1.68-1.04-.71.08-.7.08-.7 1.15.08 1.75 1.18 1.75 1.18 1.03 1.76 2.71 1.25 3.37.96.1-.75.4-1.25.72-1.54-2.56-.29-5.25-1.28-5.25-5.68 0-1.25.45-2.27 1.18-3.07-.12-.29-.51-1.47.11-3.07 0 0 .97-.31 3.18 1.17.92-.26 1.91-.39 2.89-.39.98 0 1.97.13 2.89.39 2.2-1.48 3.17-1.17 3.17-1.17.63 1.6.24 2.78.12 3.07.74.8 1.18 1.82 1.18 3.07 0 4.41-2.7 5.38-5.28 5.66.42.36.77 1.07.77 2.15 0 1.55-.01 2.79-.01 3.17 0 .31.2.68.8.56A11.52 11.52 0 0 0 23.5 12.02C23.5 5.74 18.27.5 12 .5z"/>
</svg>
